<svg xmlns="http://www.w3.org/2000/svg" viewBox="0 -0.5 32 32" shape-rendering="crispEdges">
<metadata>Made with Pixels to Svg https://codepen.io/shshaw/pen/XbxvNj</metadata>
<path stroke="#02142c" d="M0 0h32M0 1h32M0 2h15M17 2h15M0 3h15M17 3h15M0 4h5M7 4h8M17 4h8M27 4h5M0 5h5M8 5h7M17 5h7M27 5h5M0 6h6M9 6h14M26 6h6M0 7h7M9 7h14M25 7h7M0 8h11M21 8h11M0 9h11M21 9h11M0 10h9M23 10h9M0 11h9M23 11h9M0 12h9M23 12h9M0 13h9M11 13h2M19 13h2M23 13h9M0 14h3M7 14h2M11 14h2M19 14h2M23 14h2M29 14h3M0 15h3M7 15h2M11 15h4M17 15h4M23 15h2M29 15h3M0 16h9M11 16h4M17 16h4M23 16h9M0 17h9M13 17h2M17 17h2M23 17h9M0 18h11M13 18h2M17 18h2M23 18h9M0 19h11M13 19h2M17 19h2M21 19h11M0 20h11M13 20h2M17 20h2M21 20h11M0 21h7M9 21h2M13 21h2M17 21h2M21 21h2M25 21h7M0 22h6M9 22h2M13 22h2M17 22h2M21 22h2M26 22h6M0 23h5M8 23h16M27 23h5M0 24h5M7 24h4M21 24h4M27 24h5M0 25h11M21 25h11M0 26h32M0 27h13M19 27h13M0 28h13M19 28h13M0 29h14M18 29h14M0 30h32M0 31h32" />
<path stroke="#fffeec" d="M15 2h1M15 3h1M5 4h2M15 4h1M25 4h1M5 5h3M15 5h1M24 5h2M6 6h3M23 6h2M7 7h2M23 7h1M11 8h9M11 9h9M9 10h13M9 11h13M9 12h13M9 13h2M13 13h5M21 13h1M3 14h4M9 14h2M13 14h5M21 14h1M25 14h3M3 15h4M9 15h2M15 15h1M21 15h1M25 15h3M9 16h2M15 16h1M21 16h1M9 17h4M15 17h1M19 17h3M11 18h2M15 18h1M19 18h3M11 19h2M15 19h1M19 19h1M11 20h2M15 20h1M19 20h1M7 21h2M11 21h2M15 21h1M19 21h1M23 21h1M6 22h3M11 22h2M15 22h1M19 22h1M23 22h2M5 23h3M24 23h2M5 24h2M25 24h1" />
<path stroke="#bfbdb2" d="M16 2h1M16 3h1M16 4h1M26 4h1M16 5h1M26 5h1M25 6h1M24 7h1M20 8h1M20 9h1M22 10h1M22 11h1M22 12h1M18 13h1M22 13h1M18 14h1M22 14h1M28 14h1M16 15h1M22 15h1M28 15h1M16 16h1M22 16h1M16 17h1M22 17h1M16 18h1M22 18h1M16 19h1M20 19h1M16 20h1M20 20h1M16 21h1M20 21h1M24 21h1M16 22h1M20 22h1M25 22h1M26 23h1M26 24h1" />
<path stroke="#8b9ea4" d="M11 24h9M11 25h9M13 27h5M13 28h5" />
<path stroke="#6f7c80" d="M20 24h1M20 25h1M18 27h1M18 28h1M14 29h4" />
</svg>